<?xml version="1.0" encoding="utf-8"?>
<svg xmlns="http://www.w3.org/2000/svg" xmlns:xlink="http://www.w3.org/1999/xlink" style="margin: auto; background: rgb(219, 219, 219); display: block; shape-rendering: auto;" width="200px" height="200px" viewBox="0 0 100 100" preserveAspectRatio="xMidYMid">
<g transform="rotate(0 50 50)">
  <rect x="47" y="24" rx="3" ry="6" width="6" height="12" fill="#040404">
    <animate attributeName="opacity" values="1;0" keyTimes="0;1" dur="2.127659574468085s" begin="-1.950354609929078s" repeatCount="indefinite"></animate>
  </rect>
</g><g transform="rotate(30 50 50)">
  <rect x="47" y="24" rx="3" ry="6" width="6" height="12" fill="#040404">
    <animate attributeName="opacity" values="1;0" keyTimes="0;1" dur="2.127659574468085s" begin="-1.773049645390071s" repeatCount="indefinite"></animate>
  </rect>
</g><g transform="rotate(60 50 50)">
  <rect x="47" y="24" rx="3" ry="6" width="6" height="12" fill="#040404">
    <animate attributeName="opacity" values="1;0" keyTimes="0;1" dur="2.127659574468085s" begin="-1.595744680851064s" repeatCount="indefinite"></animate>
  </rect>
</g><g transform="rotate(90 50 50)">
  <rect x="47" y="24" rx="3" ry="6" width="6" height="12" fill="#040404">
    <animate attributeName="opacity" values="1;0" keyTimes="0;1" dur="2.127659574468085s" begin="-1.4184397163120568s" repeatCount="indefinite"></animate>
  </rect>
</g><g transform="rotate(120 50 50)">
  <rect x="47" y="24" rx="3" ry="6" width="6" height="12" fill="#040404">
    <animate attributeName="opacity" values="1;0" keyTimes="0;1" dur="2.127659574468085s" begin="-1.2411347517730498s" repeatCount="indefinite"></animate>
  </rect>
</g><g transform="rotate(150 50 50)">
  <rect x="47" y="24" rx="3" ry="6" width="6" height="12" fill="#040404">
    <animate attributeName="opacity" values="1;0" keyTimes="0;1" dur="2.127659574468085s" begin="-1.0638297872340425s" repeatCount="indefinite"></animate>
  </rect>
</g><g transform="rotate(180 50 50)">
  <rect x="47" y="24" rx="3" ry="6" width="6" height="12" fill="#040404">
    <animate attributeName="opacity" values="1;0" keyTimes="0;1" dur="2.127659574468085s" begin="-0.8865248226950355s" repeatCount="indefinite"></animate>
  </rect>
</g><g transform="rotate(210 50 50)">
  <rect x="47" y="24" rx="3" ry="6" width="6" height="12" fill="#040404">
    <animate attributeName="opacity" values="1;0" keyTimes="0;1" dur="2.127659574468085s" begin="-0.7092198581560284s" repeatCount="indefinite"></animate>
  </rect>
</g><g transform="rotate(240 50 50)">
  <rect x="47" y="24" rx="3" ry="6" width="6" height="12" fill="#040404">
    <animate attributeName="opacity" values="1;0" keyTimes="0;1" dur="2.127659574468085s" begin="-0.5319148936170213s" repeatCount="indefinite"></animate>
  </rect>
</g><g transform="rotate(270 50 50)">
  <rect x="47" y="24" rx="3" ry="6" width="6" height="12" fill="#040404">
    <animate attributeName="opacity" values="1;0" keyTimes="0;1" dur="2.127659574468085s" begin="-0.3546099290780142s" repeatCount="indefinite"></animate>
  </rect>
</g><g transform="rotate(300 50 50)">
  <rect x="47" y="24" rx="3" ry="6" width="6" height="12" fill="#040404">
    <animate attributeName="opacity" values="1;0" keyTimes="0;1" dur="2.127659574468085s" begin="-0.1773049645390071s" repeatCount="indefinite"></animate>
  </rect>
</g><g transform="rotate(330 50 50)">
  <rect x="47" y="24" rx="3" ry="6" width="6" height="12" fill="#040404">
    <animate attributeName="opacity" values="1;0" keyTimes="0;1" dur="2.127659574468085s" begin="0s" repeatCount="indefinite"></animate>
  </rect>
</g>
<!-- [ldio] generated by https://loading.io/ --></svg>